# xmcd CD database file
#
# Track frame offsets:
#	150
#	12893
#	36674
#	50340
#	63250
#	89276
#	101720
#	120264
#	135452
#	149840
#	164894
#	187413
#	199445
#	213259
#
# Disc length: 3630 seconds
#
# Revision: 1
# Processed by: cddbd v1.5.2PL0 Copyright (c) Steve Scherf et al.
# Submitted via: CDex 1.70beta2
#
DISCID=db0e2c0e
DTITLE=Various Artist - More Jazz!
DYEAR=1900
DGENRE=Jazz
TTITLE0=Peggy Lee - Caramba, it's the Samba
TTITLE1=George Benson - Godchild
TTITLE2=Stan Kenton - Journey to Brazil
TTITLE3=Oscar Peterson - Blue Moon
TTITLE4=Miles Davis - Chasin' the Bird
TTITLE5=Duke Ellington - Take the "A" Train
TTITLE6=Sidney Bechet - Summertime
TTITLE7=Lionel Hampton - Playboy
TTITLE8=Louis Armstrong and Earl Hines - A Monday Date
TTITLE9=Frank Sinatra - Night and Day
TTITLE10=Lena Horne - The Spring
TTITLE11=Dinah Washington - Since I fell for you
TTITLE12=Bill Coleman - I'm in the mood for love
TTITLE13=Chet Baker - A Night in Tunisia
EXTD=
EXTT0=
EXTT1=
EXTT2=
EXTT3=
EXTT4=
EXTT5=
EXTT6=
EXTT7=
EXTT8=
EXTT9=
EXTT10=
EXTT11=
EXTT12=
EXTT13=
PLAYORDER=
